<?xml version="1.0" encoding="utf-8"?>
<!-- Generator: Adobe Illustrator 19.1.0, SVG Export Plug-In . SVG Version: 6.00 Build 0)  -->
<svg version="1.1" id="Layer_1" xmlns="http://www.w3.org/2000/svg" xmlns:xlink="http://www.w3.org/1999/xlink" x="0px" y="0px"
	 viewBox="0 0 631.2 620.2" style="enable-background:new 0 0 631.2 620.2;" xml:space="preserve">
<style type="text/css">
	.st0{fill:#382A09;}
	.st1{fill:#543D05;}
	.st2{fill:#9D563D;}
	.st3{fill:#795A21;}
	.st4{fill:#524316;}
</style>
<g>
	<path class="st0" d="M412.1,526.4c-24.9-4.6-49.8-9-74.7-13.7c-7.5-1.4-14.8-3.9-22.2-5.6c-7.3-1.7-14.1-0.7-20.5,3.7
		c-11.2,7.7-22.4,15.5-34.2,22.5c-22,13-45.6,14.7-69.8,7.4c-12.8-3.9-20.9-13.4-25.6-25.5c-6.1-15.9-11.3-32.2-7.3-49.5
		c1.4-6.2,3.6-12.5,6.8-17.9c13.1-21.6,27.6-42.1,47.6-57.9c13.8-10.9,21.7-25,26.1-41.8c6.4-24.4,21.4-42.5,42.6-55.6
		c25.9-16,51.5-15.4,76.3,2.5c14.1,10.2,26.6,21.7,34,38.1c2,4.4,5.5,8.9,9.4,11.5c13.6,8.8,27.7,16.9,41.6,25.2
		c1.2,0.7,2.9,0.9,3.9,1.8c16.9,15.4,34.3,30.5,50.5,46.7c8.5,8.5,8.6,20.3,5.1,31.1c-4.3,13.4-9.1,26.8-15.4,39.3
		c-11.4,22.7-32.2,31.6-56,34.8c-5.9,0.8-11.9,1-17.9,1.5C412.3,525.4,412.2,525.9,412.1,526.4z"/>
</g>
<g>
	<path class="st1" d="M330.9,171.9c-1.2-28.2,6.7-54.9,13.9-81.7c0.8-3,2-5.9,3.3-8.7c10-21.7,33.8-28.3,53.7-14.9
		c11.4,7.7,18.4,18.9,25.5,30.2c6.5,10.3,6.5,21.8,7.6,33.2c0.9,9,1.1,18,2.1,27c1.9,17.4-4.1,32.7-10.4,48.4
		c-7.6,18.8-21.7,27.4-40.4,30.7c-2.3,0.4-4.5,0.7-6.8,1.1c-32.5,5.7-50.5-27-49.3-49.1C330.3,182.8,330.6,177.4,330.9,171.9z"/>
</g>
<g>
	<path class="st2" d="M163.8,166.6c-0.1-36.5,10.5-64.6,30.6-89.1c2.7-3.3,6.8-7.2,10.6-7.8c12.4-1.9,24.9-3.4,37.4-3.2
		c10.6,0.2,16.1,9.3,19,17.9c5.2,15.3,9.6,31,12.3,46.9c2.4,14.3,2,29,2.9,43.5c0.7,11.7-2.4,22.4-8.3,32.4
		c-7.5,12.7-14.5,25.8-22.7,38c-9.8,14.7-23.7,20.5-39.8,13.8c-10.5-4.4-18.9-10.7-24.1-21.6C170.2,213.6,164.3,188.5,163.8,166.6z"
		/>
</g>
<g>
	<path class="st3" d="M445.5,288c1.2-10.7,0.6-22.1,4-32.1c3.7-10.9,10.3-21.1,16.9-30.7c5.6-8.2,13-15.3,19.7-22.8
		c16.9-19,39.7-9.2,47.4,7.6c4.9,10.8,8.4,21.6,9.1,33.8c1,15.6,4.5,31.1,7.1,46.6c1.5,8.8,0.8,17.2-2.8,25.4
		c-7.6,17.1-16.9,32.5-34,42.3c-17.8,10.2-48.7,7.3-58.3-19.7C448.7,322.1,446,305.4,445.5,288z"/>
</g>
<g>
	<path class="st4" d="M185,341.5c1.4,19-4.6,37.5-15.8,54.4c-7.4,11.2-17,20-30.3,23c-18.8,4.2-33.9-2.6-45.3-17.9
		c-4-5.4-7.5-11.1-11.3-16.7c-7.5-11.1-7.3-24-9.7-36.5c-5.7-30.1,1.3-57.8,13-85c7.5-17.3,20.5-27.3,39.7-28.6
		c10.2-0.7,23.7,7.3,28.4,16.4c2.7,5.2,5.9,10,9.1,14.9C177.7,288.1,187.1,312.4,185,341.5z"/>
</g>
</svg>
